<?xml version="1.0" encoding="utf-8"?>
<svg xmlns="http://www.w3.org/2000/svg" viewBox="0 0 1600 900" width="1600" height="900"><defs><marker id="ar-gray" markerWidth="9" markerHeight="9" refX="8" refY="4.5" orient="auto"><path d="M 0 0 L 9 4.5 L 0 9 z" fill="#4B5563" /></marker><marker id="ar-blue" markerWidth="9" markerHeight="9" refX="8" refY="4.5" orient="auto"><path d="M 0 0 L 9 4.5 L 0 9 z" fill="#1F66D1" /></marker><marker id="ar-green" markerWidth="9" markerHeight="9" refX="8" refY="4.5" orient="auto"><path d="M 0 0 L 9 4.5 L 0 9 z" fill="#17865B" /></marker><marker id="ar-orange" markerWidth="9" markerHeight="9" refX="8" refY="4.5" orient="auto"><path d="M 0 0 L 9 4.5 L 0 9 z" fill="#D97706" /></marker><marker id="ar-purple" markerWidth="9" markerHeight="9" refX="8" refY="4.5" orient="auto"><path d="M 0 0 L 9 4.5 L 0 9 z" fill="#7454D7" /></marker><marker id="ar-red" markerWidth="9" markerHeight="9" refX="8" refY="4.5" orient="auto"><path d="M 0 0 L 9 4.5 L 0 9 z" fill="#C0392B" /></marker><marker id="ar-navy" markerWidth="9" markerHeight="9" refX="8" refY="4.5" orient="auto"><path d="M 0 0 L 9 4.5 L 0 9 z" fill="#102A56" /></marker></defs><rect x="0" y="0" width="1600" height="900" fill="#FFFFFF" /><text x="800.0" y="52" font-family="Inter, Arial, Helvetica, sans-serif" font-size="36" font-weight="700" fill="#102A56" text-anchor="middle">Secure AI Collaboration Platform: центр архитектуры</text><text x="800.0" y="88" font-family="Inter, Arial, Helvetica, sans-serif" font-size="20" font-weight="500" fill="#1F66D1" text-anchor="middle">Мессенджеры остаются каналами — платформа владеет процессами, политиками и состоянием</text><rect x="153" y="117" width="1300" height="52" rx="14" ry="14" fill="#0F172A" opacity="0.07" /><rect x="150" y="114" width="1300" height="52" rx="14" ry="14" fill="#102A56" /><text x="800" y="147" font-family="Inter, Arial, Helvetica, sans-serif" font-size="23" font-weight="700" fill="#FFFFFF" text-anchor="middle">Собственные клиенты</text><rect x="213.0" y="189" width="250" height="72" rx="18" ry="18" fill="#0F172A" opacity="0.07" /><rect x="210.0" y="186" width="250" height="72" rx="18" ry="18" fill="#F5F8FF" stroke="#1F66D1" stroke-width="2" /><text x="335.0" y="230.64" font-family="Inter, Arial, Helvetica, sans-serif" font-size="24" font-weight="700" fill="#102A56" text-anchor="middle">iOS</text><rect x="523.0" y="189" width="250" height="72" rx="18" ry="18" fill="#0F172A" opacity="0.07" /><rect x="520.0" y="186" width="250" height="72" rx="18" ry="18" fill="#F5F8FF" stroke="#1F66D1" stroke-width="2" /><text x="645.0" y="230.64" font-family="Inter, Arial, Helvetica, sans-serif" font-size="24" font-weight="700" fill="#102A56" text-anchor="middle">macOS</text><rect x="833.0" y="189" width="250" height="72" rx="18" ry="18" fill="#0F172A" opacity="0.07" /><rect x="830.0" y="186" width="250" height="72" rx="18" ry="18" fill="#F5F8FF" stroke="#1F66D1" stroke-width="2" /><text x="955.0" y="230.64" font-family="Inter, Arial, Helvetica, sans-serif" font-size="24" font-weight="700" fill="#102A56" text-anchor="middle">Android</text><rect x="1143.0" y="189" width="250" height="72" rx="18" ry="18" fill="#0F172A" opacity="0.07" /><rect x="1140.0" y="186" width="250" height="72" rx="18" ry="18" fill="#F5F8FF" stroke="#1F66D1" stroke-width="2" /><text x="1265.0" y="230.64" font-family="Inter, Arial, Helvetica, sans-serif" font-size="24" font-weight="700" fill="#102A56" text-anchor="middle">Web</text><line x1="800" y1="262" x2="800" y2="316" stroke="#1F66D1" stroke-width="2.5" marker-end="url(#ar-blue)" /><rect x="428" y="325" width="750" height="104" rx="24" ry="24" fill="#0F172A" opacity="0.07" /><rect x="425" y="322" width="750" height="104" rx="24" ry="24" fill="#EAF2FF" stroke="#1F66D1" stroke-width="3" /><text x="800" y="366" font-family="Inter, Arial, Helvetica, sans-serif" font-size="30" font-weight="700" fill="#102A56" text-anchor="middle">YourOwn.Chat Platform</text><text x="800" y="400" font-family="Inter, Arial, Helvetica, sans-serif" font-size="19" font-weight="500" fill="#4B5563" text-anchor="middle">единая доменная модель + Security Policy Engine</text><line x1="800" y1="426" x2="800" y2="452" stroke="#4B5563" stroke-width="2" /><line x1="320.0" y1="452" x2="1280.0" y2="452" stroke="#4B5563" stroke-width="2" /><line x1="320.0" y1="452" x2="320.0" y2="476" stroke="#4B5563" stroke-width="2" marker-end="url(#ar-gray)" /><line x1="560.0" y1="452" x2="560.0" y2="476" stroke="#4B5563" stroke-width="2" marker-end="url(#ar-gray)" /><line x1="800.0" y1="452" x2="800.0" y2="476" stroke="#4B5563" stroke-width="2" marker-end="url(#ar-gray)" /><line x1="1040.0" y1="452" x2="1040.0" y2="476" stroke="#4B5563" stroke-width="2" marker-end="url(#ar-gray)" /><line x1="1280.0" y1="452" x2="1280.0" y2="476" stroke="#4B5563" stroke-width="2" marker-end="url(#ar-gray)" /><rect x="223.0" y="481" width="200" height="78" rx="16" ry="16" fill="#0F172A" opacity="0.07" /><rect x="220.0" y="478" width="200" height="78" rx="16" ry="16" fill="#F2EEFF" stroke="#7454D7" stroke-width="2" /><text x="320.0" y="524.56" font-family="Inter, Arial, Helvetica, sans-serif" font-size="21" font-weight="700" fill="#7454D7" text-anchor="middle">AI / MCP</text><rect x="463.0" y="481" width="200" height="78" rx="16" ry="16" fill="#0F172A" opacity="0.07" /><rect x="460.0" y="478" width="200" height="78" rx="16" ry="16" fill="#EAF2FF" stroke="#1F66D1" stroke-width="2" /><text x="560.0" y="524.56" font-family="Inter, Arial, Helvetica, sans-serif" font-size="21" font-weight="700" fill="#1F66D1" text-anchor="middle">Workflows</text><rect x="703.0" y="481" width="200" height="78" rx="16" ry="16" fill="#0F172A" opacity="0.07" /><rect x="700.0" y="478" width="200" height="78" rx="16" ry="16" fill="#FFF7E8" stroke="#D97706" stroke-width="2" /><text x="800.0" y="524.56" font-family="Inter, Arial, Helvetica, sans-serif" font-size="21" font-weight="700" fill="#D97706" text-anchor="middle">Approvals</text><rect x="943.0" y="481" width="200" height="78" rx="16" ry="16" fill="#0F172A" opacity="0.07" /><rect x="940.0" y="478" width="200" height="78" rx="16" ry="16" fill="#EAF8F1" stroke="#17865B" stroke-width="2" /><text x="1040.0" y="524.56" font-family="Inter, Arial, Helvetica, sans-serif" font-size="21" font-weight="700" fill="#17865B" text-anchor="middle">Security</text><rect x="1183.0" y="481" width="200" height="78" rx="16" ry="16" fill="#0F172A" opacity="0.07" /><rect x="1180.0" y="478" width="200" height="78" rx="16" ry="16" fill="#F3F4F6" stroke="#102A56" stroke-width="2" /><text x="1280.0" y="524.56" font-family="Inter, Arial, Helvetica, sans-serif" font-size="21" font-weight="700" fill="#102A56" text-anchor="middle">Knowledge</text><line x1="800" y1="560" x2="800" y2="620" stroke="#17865B" stroke-width="2.5" marker-end="url(#ar-green)" /><rect x="253" y="629" width="1100" height="72" rx="20" ry="20" fill="#0F172A" opacity="0.07" /><rect x="250" y="626" width="1100" height="72" rx="20" ry="20" fill="#EAF8F1" stroke="#17865B" stroke-width="2" /><text x="800" y="671" font-family="Inter, Arial, Helvetica, sans-serif" font-size="27" font-weight="700" fill="#17865B" text-anchor="middle">Integration Gateway / Backend Adapters</text><line x1="290.0" y1="698" x2="290.0" y2="752" stroke="#4B5563" stroke-width="2.5" marker-end="url(#ar-gray)" /><rect x="148.0" y="759" width="290" height="90" rx="16" ry="16" fill="#0F172A" opacity="0.07" /><rect x="145.0" y="756" width="290" height="90" rx="16" ry="16" fill="#FFFFFF" stroke="#D1D5DB" stroke-width="2" /><text x="290.0" y="797.0" font-family="Inter, Arial, Helvetica, sans-serif" font-size="22" font-weight="700" fill="#111827" text-anchor="middle">Корпоративный чат</text><text x="290.0" y="823.0" font-family="Inter, Arial, Helvetica, sans-serif" font-size="15" font-weight="500" fill="#4B5563" text-anchor="middle">существующие чаты и bridge</text><line x1="630.0" y1="698" x2="630.0" y2="752" stroke="#4B5563" stroke-width="2.5" marker-end="url(#ar-gray)" /><rect x="488.0" y="759" width="290" height="90" rx="16" ry="16" fill="#0F172A" opacity="0.07" /><rect x="485.0" y="756" width="290" height="90" rx="16" ry="16" fill="#FFFFFF" stroke="#D1D5DB" stroke-width="2" /><text x="630.0" y="797.0" font-family="Inter, Arial, Helvetica, sans-serif" font-size="22" font-weight="700" fill="#111827" text-anchor="middle">Mattermost</text><text x="630.0" y="823.0" font-family="Inter, Arial, Helvetica, sans-serif" font-size="15" font-weight="500" fill="#4B5563" text-anchor="middle">compatibility target</text><line x1="970.0" y1="698" x2="970.0" y2="752" stroke="#4B5563" stroke-width="2.5" marker-end="url(#ar-gray)" /><rect x="828.0" y="759" width="290" height="90" rx="16" ry="16" fill="#0F172A" opacity="0.07" /><rect x="825.0" y="756" width="290" height="90" rx="16" ry="16" fill="#FFFFFF" stroke="#D1D5DB" stroke-width="2" /><text x="970.0" y="797.0" font-family="Inter, Arial, Helvetica, sans-serif" font-size="22" font-weight="700" fill="#111827" text-anchor="middle">Email / Teams</text><text x="970.0" y="823.0" font-family="Inter, Arial, Helvetica, sans-serif" font-size="15" font-weight="500" fill="#4B5563" text-anchor="middle">коммуникационные каналы</text><line x1="1310.0" y1="698" x2="1310.0" y2="752" stroke="#4B5563" stroke-width="2.5" marker-end="url(#ar-gray)" /><rect x="1168.0" y="759" width="290" height="90" rx="16" ry="16" fill="#0F172A" opacity="0.07" /><rect x="1165.0" y="756" width="290" height="90" rx="16" ry="16" fill="#FFFFFF" stroke="#D1D5DB" stroke-width="2" /><text x="1310.0" y="797.0" font-family="Inter, Arial, Helvetica, sans-serif" font-size="22" font-weight="700" fill="#111827" text-anchor="middle">Git / Jira / Cloud</text><text x="1310.0" y="823.0" font-family="Inter, Arial, Helvetica, sans-serif" font-size="15" font-weight="500" fill="#4B5563" text-anchor="middle">операционные системы</text><rect x="333.0" y="865" width="940" height="34" rx="17.0" ry="17.0" fill="#0F172A" opacity="0.07" /><rect x="330.0" y="862" width="940" height="34" rx="17.0" ry="17.0" fill="#102A56" /><text x="800.0" y="884.76" font-family="Inter, Arial, Helvetica, sans-serif" font-size="16" font-weight="600" fill="#FFFFFF" text-anchor="middle">Ключевой принцип: состояние AI и workflows принадлежит платформе, а не мессенджеру</text></svg>
